<svg width="161" height="40" viewBox="0 0 161 40" fill="none" xmlns="http://www.w3.org/2000/svg">
<rect width="40" height="40" rx="6.66667" fill="#0076B7"/>
<path fill-rule="evenodd" clip-rule="evenodd" d="M26.9841 11.2489H15.8086V6.50781H31.7252V22.4244H26.9841V11.2489Z" fill="white"/>
<path fill-rule="evenodd" clip-rule="evenodd" d="M18.2574 20.694C17.5334 20.2102 16.6823 19.952 15.8115 19.952V15.2109C17.62 15.2109 19.3878 15.7472 20.8914 16.7519C22.3951 17.7566 23.567 19.1846 24.2591 20.8554C24.9511 22.5262 25.1322 24.3647 24.7794 26.1383C24.4266 27.912 23.5558 29.5412 22.277 30.82C20.9983 32.0987 19.369 32.9696 17.5953 33.3224C15.8217 33.6752 13.9832 33.4941 12.3124 32.8021C10.6417 32.11 9.21363 30.938 8.20893 29.4344C7.20422 27.9307 6.66797 26.1629 6.66797 24.3545L11.4091 24.3545C11.4091 25.2252 11.6673 26.0764 12.151 26.8004C12.6348 27.5244 13.3223 28.0886 14.1268 28.4218C14.9312 28.7551 15.8164 28.8422 16.6704 28.6724C17.5244 28.5025 18.3088 28.0832 18.9245 27.4675C19.5402 26.8518 19.9595 26.0674 20.1294 25.2134C20.2993 24.3594 20.2121 23.4742 19.8789 22.6698C19.5457 21.8653 18.9814 21.1777 18.2574 20.694Z" fill="white"/>
<path d="M51.582 27V12.9082H54.5312V18.6309H60.8789V12.9082H63.8281V27H60.8789V21.0625H54.5312V27H51.582ZM71.0551 27.2246C69.9678 27.2246 69.0336 27 68.2523 26.5508C67.4711 26.1016 66.8689 25.4635 66.4457 24.6367C66.029 23.8034 65.8207 22.8171 65.8207 21.6777V21.668C65.8207 20.5352 66.029 19.5521 66.4457 18.7188C66.8689 17.8789 67.4613 17.2311 68.223 16.7754C68.9913 16.3197 69.8962 16.0918 70.9379 16.0918C71.9796 16.0918 72.878 16.3132 73.6332 16.7559C74.3884 17.1986 74.9711 17.8236 75.3813 18.6309C75.7914 19.4316 75.9965 20.3724 75.9965 21.4531V22.332H67.2367V20.5449H74.6391L73.2914 22.2344V21.1016C73.2914 20.4701 73.1938 19.9395 72.9984 19.5098C72.8031 19.0801 72.5329 18.7578 72.1879 18.543C71.8428 18.3281 71.4424 18.2207 70.9867 18.2207C70.531 18.2207 70.1273 18.3314 69.7758 18.5527C69.4242 18.7741 69.1475 19.0996 68.9457 19.5293C68.7439 19.959 68.643 20.4831 68.643 21.1016V22.2441C68.643 22.8431 68.7406 23.3542 68.9359 23.7773C69.1378 24.2005 69.4242 24.526 69.7953 24.7539C70.1664 24.9818 70.6059 25.0957 71.1137 25.0957C71.5238 25.0957 71.8721 25.0339 72.1586 24.9102C72.4516 24.7865 72.6892 24.64 72.8715 24.4707C73.0538 24.2949 73.1775 24.1322 73.2426 23.9824L73.2621 23.9238H75.9086L75.8891 24.0312C75.8044 24.3763 75.6514 24.7376 75.4301 25.1152C75.2087 25.4863 74.9027 25.8314 74.5121 26.1504C74.128 26.4694 73.6495 26.7298 73.0766 26.9316C72.5036 27.127 71.8298 27.2246 71.0551 27.2246ZM78.7703 30.7109C78.575 30.7109 78.3797 30.7044 78.1844 30.6914C77.9891 30.6849 77.8068 30.6719 77.6375 30.6523V28.5234C77.7352 28.5299 77.8523 28.5365 77.9891 28.543C78.1323 28.556 78.2788 28.5625 78.4285 28.5625C78.9168 28.5625 79.3042 28.4681 79.5906 28.2793C79.8771 28.0905 80.0724 27.7975 80.1766 27.4004L80.284 27L76.5242 16.3164H79.659L82.1785 25.4766L81.5926 24.4707H82.3641L81.7977 25.4766L84.3172 16.3164H87.325L83.6824 27.0391C83.3764 27.957 83.0053 28.6829 82.5691 29.2168C82.1329 29.7507 81.6056 30.1315 80.9871 30.3594C80.3686 30.5938 79.6297 30.7109 78.7703 30.7109ZM92.7258 27.2246C91.7557 27.2246 90.9289 27.0911 90.2453 26.8242C89.5617 26.5508 89.0246 26.1732 88.634 25.6914C88.2499 25.2096 88.022 24.6562 87.9504 24.0312V23.9824H90.7434L90.7629 24.0312C90.8736 24.3828 91.0917 24.6693 91.4172 24.8906C91.7427 25.1055 92.1887 25.2129 92.7551 25.2129C93.1197 25.2129 93.4354 25.1641 93.7023 25.0664C93.9758 24.9688 94.1874 24.8353 94.3371 24.666C94.4868 24.4902 94.5617 24.2852 94.5617 24.0508V24.0312C94.5617 23.7448 94.4478 23.5104 94.2199 23.3281C93.9921 23.1458 93.6112 22.9928 93.0773 22.8691L91.2805 22.4883C90.6034 22.3451 90.037 22.1367 89.5812 21.8633C89.1255 21.5898 88.7837 21.2513 88.5559 20.8477C88.328 20.444 88.2141 19.9753 88.2141 19.4414V19.4316C88.2141 18.7611 88.3996 18.1751 88.7707 17.6738C89.1418 17.1725 89.6626 16.7852 90.3332 16.5117C91.0038 16.2318 91.785 16.0918 92.677 16.0918C93.6145 16.0918 94.4087 16.235 95.0598 16.5215C95.7173 16.8014 96.2219 17.1823 96.5734 17.6641C96.925 18.1458 97.1203 18.6797 97.1594 19.2656V19.3145H94.5129L94.5031 19.2656C94.438 18.9531 94.2492 18.6829 93.9367 18.4551C93.6242 18.2207 93.201 18.1035 92.6672 18.1035C92.3417 18.1035 92.052 18.1523 91.798 18.25C91.5507 18.3411 91.3553 18.4746 91.2121 18.6504C91.0689 18.8197 90.9973 19.0247 90.9973 19.2656V19.2754C90.9973 19.4642 91.0461 19.6302 91.1437 19.7734C91.2414 19.9102 91.3977 20.0306 91.6125 20.1348C91.8339 20.2389 92.1268 20.3333 92.4914 20.418L94.2785 20.7988C95.3592 21.0332 96.1503 21.3848 96.6516 21.8535C97.1594 22.3158 97.4133 22.9408 97.4133 23.7285V23.7383C97.4133 24.4414 97.2115 25.0566 96.8078 25.584C96.4107 26.1048 95.8605 26.5085 95.1574 26.7949C94.4543 27.0814 93.6437 27.2246 92.7258 27.2246ZM103.888 27.2246C102.782 27.2246 101.838 27.0065 101.056 26.5703C100.275 26.1276 99.676 25.4896 99.2594 24.6562C98.8492 23.8229 98.6441 22.8203 98.6441 21.6484V21.6289C98.6441 20.4635 98.8492 19.4674 99.2594 18.6406C99.676 17.8138 100.275 17.1823 101.056 16.7461C101.838 16.3099 102.778 16.0918 103.879 16.0918C104.829 16.0918 105.646 16.2578 106.33 16.5898C107.02 16.9219 107.563 17.3841 107.961 17.9766C108.358 18.569 108.592 19.2624 108.664 20.0566V20.0957H106.017L106.007 20.0566C105.916 19.5423 105.692 19.1257 105.334 18.8066C104.982 18.4876 104.504 18.3281 103.898 18.3281C103.397 18.3281 102.97 18.4583 102.619 18.7188C102.274 18.9727 102.007 19.347 101.818 19.8418C101.636 20.3301 101.545 20.9258 101.545 21.6289V21.6484C101.545 22.3646 101.636 22.9733 101.818 23.4746C102.007 23.9694 102.277 24.347 102.629 24.6074C102.98 24.8613 103.403 24.9883 103.898 24.9883C104.484 24.9883 104.949 24.8451 105.295 24.5586C105.646 24.2721 105.88 23.8587 105.998 23.3184L106.017 23.2793L108.664 23.2695L108.654 23.3379C108.569 24.1126 108.328 24.793 107.931 25.3789C107.534 25.9583 106.994 26.4108 106.31 26.7363C105.633 27.0618 104.826 27.2246 103.888 27.2246ZM113.254 27.166C112.57 27.166 111.965 27.0358 111.438 26.7754C110.91 26.5085 110.497 26.1341 110.197 25.6523C109.898 25.1641 109.748 24.5977 109.748 23.9531V23.9434C109.748 23.2988 109.908 22.7454 110.227 22.2832C110.552 21.821 111.024 21.4596 111.643 21.1992C112.261 20.9388 113.013 20.7793 113.898 20.7207L117.912 20.4863V22.2246L114.318 22.459C113.726 22.498 113.28 22.6315 112.98 22.8594C112.688 23.0807 112.541 23.3867 112.541 23.7773V23.7969C112.541 24.194 112.694 24.5098 113 24.7441C113.312 24.972 113.716 25.0859 114.211 25.0859C114.647 25.0859 115.035 25.0013 115.373 24.832C115.718 24.6562 115.988 24.4186 116.184 24.1191C116.385 23.8197 116.486 23.4844 116.486 23.1133V19.7441C116.486 19.2754 116.333 18.9141 116.027 18.6602C115.728 18.3997 115.288 18.2695 114.709 18.2695C114.188 18.2695 113.768 18.3639 113.449 18.5527C113.13 18.735 112.919 18.9889 112.814 19.3145L112.795 19.3633H110.168L110.178 19.2656C110.249 18.6276 110.48 18.071 110.871 17.5957C111.268 17.1204 111.805 16.7526 112.482 16.4922C113.16 16.2253 113.947 16.0918 114.846 16.0918C115.79 16.0918 116.594 16.235 117.258 16.5215C117.922 16.8079 118.43 17.2214 118.781 17.7617C119.133 18.3021 119.309 18.9466 119.309 19.6953V27H116.486V25.5449H116.34C116.158 25.8835 115.913 26.1764 115.607 26.4238C115.301 26.6647 114.95 26.8503 114.553 26.9805C114.156 27.1042 113.723 27.166 113.254 27.166ZM121.575 27V12.3223H124.426V27H121.575ZM131.468 27.2246C130.38 27.2246 129.446 27 128.665 26.5508C127.884 26.1016 127.281 25.4635 126.858 24.6367C126.442 23.8034 126.233 22.8171 126.233 21.6777V21.668C126.233 20.5352 126.442 19.5521 126.858 18.7188C127.281 17.8789 127.874 17.2311 128.636 16.7754C129.404 16.3197 130.309 16.0918 131.35 16.0918C132.392 16.0918 133.29 16.3132 134.046 16.7559C134.801 17.1986 135.384 17.8236 135.794 18.6309C136.204 19.4316 136.409 20.3724 136.409 21.4531V22.332H127.649V20.5449H135.052L133.704 22.2344V21.1016C133.704 20.4701 133.606 19.9395 133.411 19.5098C133.216 19.0801 132.945 18.7578 132.6 18.543C132.255 18.3281 131.855 18.2207 131.399 18.2207C130.943 18.2207 130.54 18.3314 130.188 18.5527C129.837 18.7741 129.56 19.0996 129.358 19.5293C129.156 19.959 129.055 20.4831 129.055 21.1016V22.2441C129.055 22.8431 129.153 23.3542 129.348 23.7773C129.55 24.2005 129.837 24.526 130.208 24.7539C130.579 24.9818 131.018 25.0957 131.526 25.0957C131.936 25.0957 132.285 25.0339 132.571 24.9102C132.864 24.7865 133.102 24.64 133.284 24.4707C133.466 24.2949 133.59 24.1322 133.655 23.9824L133.675 23.9238H136.321L136.302 24.0312C136.217 24.3763 136.064 24.7376 135.843 25.1152C135.621 25.4863 135.315 25.8314 134.925 26.1504C134.54 26.4694 134.062 26.7298 133.489 26.9316C132.916 27.127 132.242 27.2246 131.468 27.2246ZM140.042 27.2246C139.56 27.2246 139.157 27.0651 138.831 26.7461C138.512 26.4271 138.353 26.0299 138.353 25.5547C138.353 25.0794 138.512 24.6855 138.831 24.373C139.157 24.054 139.56 23.8945 140.042 23.8945C140.53 23.8945 140.934 24.054 141.253 24.373C141.572 24.6855 141.732 25.0794 141.732 25.5547C141.732 26.0299 141.572 26.4271 141.253 26.7461C140.934 27.0651 140.53 27.2246 140.042 27.2246ZM144.203 27V16.3164H147.054V27H144.203ZM145.629 14.7344C145.199 14.7344 144.828 14.5814 144.515 14.2754C144.203 13.9694 144.046 13.6048 144.046 13.1816C144.046 12.7454 144.203 12.3776 144.515 12.0781C144.828 11.7721 145.199 11.6191 145.629 11.6191C146.071 11.6191 146.446 11.7721 146.752 12.0781C147.064 12.3776 147.22 12.7454 147.22 13.1816C147.22 13.6048 147.064 13.9694 146.752 14.2754C146.446 14.5814 146.071 14.7344 145.629 14.7344ZM154.076 27.2246C152.989 27.2246 152.048 27.0033 151.254 26.5605C150.466 26.1178 149.861 25.4798 149.438 24.6465C149.014 23.8132 148.803 22.8171 148.803 21.6582V21.6387C148.803 20.4928 149.018 19.5065 149.447 18.6797C149.877 17.8464 150.486 17.2083 151.273 16.7656C152.061 16.3164 152.995 16.0918 154.076 16.0918C155.163 16.0918 156.101 16.3164 156.889 16.7656C157.676 17.2083 158.282 17.8431 158.705 18.6699C159.135 19.4967 159.35 20.4863 159.35 21.6387V21.6582C159.35 22.8171 159.138 23.8132 158.715 24.6465C158.292 25.4798 157.686 26.1178 156.898 26.5605C156.111 27.0033 155.17 27.2246 154.076 27.2246ZM154.076 24.9883C154.577 24.9883 155.001 24.8581 155.346 24.5977C155.697 24.3307 155.967 23.9499 156.156 23.4551C156.345 22.9603 156.439 22.3646 156.439 21.668V21.6484C156.439 20.9518 156.345 20.3561 156.156 19.8613C155.967 19.3665 155.697 18.9889 155.346 18.7285C154.994 18.4616 154.571 18.3281 154.076 18.3281C153.588 18.3281 153.168 18.4616 152.816 18.7285C152.465 18.9889 152.195 19.3665 152.006 19.8613C151.817 20.3561 151.723 20.9518 151.723 21.6484V21.668C151.723 22.3646 151.814 22.9635 151.996 23.4648C152.185 23.9596 152.455 24.3372 152.807 24.5977C153.158 24.8581 153.581 24.9883 154.076 24.9883Z" fill="#0076B7"/>
</svg>
