<svg width="40" height="40" viewBox="0 0 40 40" fill="none" xmlns="http://www.w3.org/2000/svg">
<path d="M39.3833 7.77691C38.6133 6.45358 37.1967 5.55469 35.5556 5.55469H20V7.77691H39.3833ZM0 27.7769H40V29.9991H0V27.7769ZM20 18.888H40V21.1102H20V18.888ZM20 14.4436H40V16.6658H20V14.4436ZM0 23.3325H40V25.5547H0V23.3325ZM4.44444 34.4436H35.5556C37.1967 34.4436 38.6133 33.5447 39.3833 32.2214H0.616667C1.38667 33.5447 2.80333 34.4436 4.44444 34.4436ZM20 9.99913H40V12.2214H20V9.99913Z" fill="#B22334"/>
<path d="M0.0755556 30.7579C0.0940741 30.8616 0.115926 30.9642 0.141111 31.0657C0.170741 31.1768 0.204815 31.2864 0.243333 31.3946C0.342222 31.6824 0.462222 31.9601 0.613333 32.2201L0.616667 32.2257H39.3833L39.3856 32.2213C39.5361 31.96 39.6597 31.6842 39.7544 31.3979C39.8266 31.1891 39.883 30.9752 39.9233 30.7579C39.9689 30.5135 40 30.2624 40 30.0035H0C0 30.2624 0.0311111 30.5124 0.0755556 30.7579ZM0 25.559H40V27.7812H0V25.559ZM0 21.1146V23.3368H40V21.1146H20H0ZM20 16.6701H40V18.8924H20V16.6701ZM20 12.2257H40V14.4479H20V12.2257ZM0.142222 8.94125C0.17 8.82792 0.208889 8.72014 0.244444 8.61125C0.206106 8.71988 0.172007 8.82997 0.142222 8.94125ZM20 10.0035H40C40 9.74458 39.9689 9.49347 39.9233 9.24792C39.8845 9.03025 39.8276 8.81618 39.7533 8.60792C39.6585 8.32048 39.5345 8.04349 39.3833 7.78125H20V10.0035Z" fill="#EEEEEE"/>
<path d="M20 5.55469H4.44444C3.2657 5.55469 2.13524 6.02294 1.30175 6.85643C0.468253 7.68993 0 8.82039 0 9.99913L0 21.1102H20V5.55469Z" fill="#3C3B6E"/>
<path d="M2.22266 8.58792L2.90932 9.08681L2.6471 9.89236L3.33266 9.39458L4.01932 9.89236L3.7571 9.08681L4.44377 8.58792H3.59488L3.33266 7.78125L3.07155 8.58792H2.22266ZM4.44488 10.8101L5.13155 11.309L4.86932 12.1146L5.55488 11.6168L6.24155 12.1146L5.97932 11.309L6.66599 10.8101H5.8171L5.55488 10.0035L5.29377 10.8101H4.44488ZM8.88932 10.8101L9.57599 11.309L9.31377 12.1146L9.99932 11.6168L10.686 12.1146L10.4238 11.309L11.1104 10.8101H10.2615L9.99932 10.0035L9.73821 10.8101H8.88932ZM13.3338 10.8101L14.0204 11.309L13.7582 12.1146L14.4438 11.6168L15.1304 12.1146L14.8682 11.309L15.5549 10.8101H14.706L14.4438 10.0035L14.1827 10.8101H13.3338ZM4.44488 15.2546L5.13155 15.7535L4.86932 16.559L5.55488 16.0612L6.24155 16.559L5.97932 15.7535L6.66599 15.2546H5.8171L5.55488 14.4479L5.29377 15.2546H4.44488ZM8.88932 15.2546L9.57599 15.7535L9.31377 16.559L9.99932 16.0612L10.686 16.559L10.4238 15.7535L11.1104 15.2546H10.2615L9.99932 14.4479L9.73821 15.2546H8.88932ZM13.3338 15.2546L14.0204 15.7535L13.7582 16.559L14.4438 16.0612L15.1304 16.559L14.8682 15.7535L15.5549 15.2546H14.706L14.4438 14.4479L14.1827 15.2546H13.3338ZM6.6671 8.58792L7.35377 9.08681L7.09154 9.89236L7.7771 9.39458L8.46377 9.89236L8.20154 9.08681L8.88821 8.58792H8.03932L7.7771 7.78125L7.51599 8.58792H6.6671ZM11.1115 8.58792L11.7982 9.08681L11.536 9.89236L12.2215 9.39458L12.9082 9.89236L12.646 9.08681L13.3327 8.58792H12.4838L12.2215 7.78125L11.9604 8.58792H11.1115ZM15.556 8.58792L16.2427 9.08681L15.9804 9.89236L16.666 9.39458L17.3527 9.89236L17.0904 9.08681L17.7771 8.58792H16.9282L16.666 7.78125L16.4049 8.58792H15.556ZM2.22266 13.0324L2.90932 13.5313L2.6471 14.3368L3.33266 13.839L4.01932 14.3368L3.7571 13.5313L4.44377 13.0324H3.59488L3.33266 12.2257L3.07155 13.0324H2.22266ZM7.09154 14.3368L7.7771 13.839L8.46377 14.3368L8.20154 13.5313L8.88821 13.0324H8.03932L7.7771 12.2257L7.51599 13.0324H6.6671L7.35377 13.5313L7.09154 14.3368ZM11.1115 13.0324L11.7982 13.5313L11.536 14.3368L12.2215 13.839L12.9082 14.3368L12.646 13.5313L13.3327 13.0324H12.4838L12.2215 12.2257L11.9604 13.0324H11.1115ZM15.556 13.0324L16.2427 13.5313L15.9804 14.3368L16.666 13.839L17.3527 14.3368L17.0904 13.5313L17.7771 13.0324H16.9282L16.666 12.2257L16.4049 13.0324H15.556ZM2.22266 17.4768L2.90932 17.9757L2.6471 18.7812L3.33266 18.2835L4.01932 18.7812L3.7571 17.9757L4.44377 17.4768H3.59488L3.33266 16.6701L3.07155 17.4768H2.22266ZM7.09154 18.7812L7.7771 18.2835L8.46377 18.7812L8.20154 17.9757L8.88821 17.4768H8.03932L7.7771 16.6701L7.51599 17.4768H6.6671L7.35377 17.9757L7.09154 18.7812ZM11.1115 17.4768L11.7982 17.9757L11.536 18.7812L12.2215 18.2835L12.9082 18.7812L12.646 17.9757L13.3327 17.4768H12.4838L12.2215 16.6701L11.9604 17.4768H11.1115ZM15.556 17.4768L16.2427 17.9757L15.9804 18.7812L16.666 18.2835L17.3527 18.7812L17.0904 17.9757L17.7771 17.4768H16.9282L16.666 16.6701L16.4049 17.4768H15.556Z" fill="white"/>
</svg>
