<svg width="146" height="24" viewBox="0 0 146 24" fill="none" xmlns="http://www.w3.org/2000/svg">
<g filter="url(#filter0_i_21594_59531)">
<path d="M10.0013 3.66406C5.4013 3.66406 1.66797 7.3974 1.66797 11.9974C1.66797 16.5974 5.4013 20.3307 10.0013 20.3307C14.6013 20.3307 18.3346 16.5974 18.3346 11.9974C18.3346 7.3974 14.6013 3.66406 10.0013 3.66406ZM7.5013 8.66406C7.95964 8.66406 8.33464 9.03906 8.33464 9.4974C8.33464 9.95573 7.96797 10.3307 7.5013 10.3307C7.04297 10.3307 6.66797 9.95573 6.66797 9.4974C6.66797 9.03906 7.04297 8.66406 7.5013 8.66406ZM7.94297 14.9391C7.81797 15.0641 7.65964 15.1224 7.5013 15.1224C7.34297 15.1224 7.18464 15.0641 7.05964 14.9391C6.81797 14.6974 6.81797 14.2974 7.05964 14.0557L12.0596 9.05573C12.3013 8.81406 12.7013 8.81406 12.943 9.05573C13.1846 9.2974 13.1846 9.6974 12.943 9.93906L7.94297 14.9391ZM12.5013 15.3307C12.0346 15.3307 11.6596 14.9557 11.6596 14.4974C11.6596 14.0391 12.0346 13.6641 12.493 13.6641C12.9513 13.6641 13.3263 14.0391 13.3263 14.4974C13.3263 14.9557 12.9596 15.3307 12.5013 15.3307Z" fill="#259F46"/>
<path d="M30.45 18H28.1375L24.2156 6.72656H26.4344L29.2938 15.8359H29.3406L32.2 6.72656H34.3719L30.45 18ZM37.79 18.1641C35.3603 18.1641 33.7822 16.5469 33.7822 13.8594C33.7822 11.1875 35.3759 9.54688 37.79 9.54688C40.2041 9.54688 41.7978 11.1797 41.7978 13.8594C41.7978 16.5469 40.2197 18.1641 37.79 18.1641ZM37.79 16.625C39.0244 16.625 39.8213 15.625 39.8213 13.8594C39.8213 12.1016 39.0244 11.0938 37.79 11.0938C36.5634 11.0938 35.7588 12.1016 35.7588 13.8594C35.7588 15.625 36.5556 16.625 37.79 16.625ZM42.9425 18V6.72656H44.8878V18H42.9425ZM53.7278 9.71875V18H51.8528V16.5625H51.8138C51.3763 17.5703 50.5403 18.1484 49.2825 18.1484C47.4856 18.1484 46.345 16.9844 46.345 15.0703V9.71875H48.2903V14.6797C48.2903 15.8672 48.8684 16.5078 49.9622 16.5078C51.0872 16.5078 51.7825 15.7109 51.7825 14.5078V9.71875H53.7278ZM55.1616 18V9.71875H57.0288V11.1562H57.0678C57.4272 10.1953 58.3022 9.5625 59.4272 9.5625C60.5991 9.5625 61.435 10.1641 61.7397 11.2266H61.7866C62.185 10.2031 63.1694 9.5625 64.3647 9.5625C65.9975 9.5625 67.0678 10.6641 67.0678 12.3203V18H65.1225V12.7969C65.1225 11.7812 64.5913 11.2031 63.6381 11.2031C62.7006 11.2031 62.06 11.8906 62.06 12.8828V18H60.1694V12.6953C60.1694 11.7734 59.6069 11.2031 58.7006 11.2031C57.7631 11.2031 57.1069 11.9297 57.1069 12.9297V18H55.1616ZM72.0406 11.0547C70.9469 11.0547 70.1578 11.8906 70.0797 13.0469H73.9469C73.9078 11.875 73.1578 11.0547 72.0406 11.0547ZM73.9547 15.5234H75.775C75.525 17.0859 74.0719 18.1641 72.1109 18.1641C69.6266 18.1641 68.1266 16.5312 68.1266 13.8906C68.1266 11.2734 69.6422 9.54688 72.0328 9.54688C74.3844 9.54688 75.8531 11.1797 75.8531 13.6953V14.3281H70.0641V14.4453C70.0641 15.7734 70.8766 16.6641 72.15 16.6641C73.0563 16.6641 73.7438 16.2109 73.9547 15.5234ZM80.1894 6.72656H84.3066C87.6738 6.72656 89.6659 8.76562 89.6659 12.3359C89.6659 15.9062 87.6816 18 84.3066 18H80.1894V6.72656ZM82.205 8.42969V16.2969H84.0956C86.3613 16.2969 87.6113 14.9141 87.6113 12.3438C87.6113 9.82031 86.3456 8.42969 84.0956 8.42969H82.205ZM90.9591 18V9.71875H92.9044V18H90.9591ZM91.9278 8.63281C91.3262 8.63281 90.8497 8.16406 90.8497 7.57812C90.8497 6.98438 91.3262 6.51562 91.9278 6.51562C92.5372 6.51562 93.0137 6.98438 93.0137 7.57812C93.0137 8.16406 92.5372 8.63281 91.9278 8.63281ZM94.2287 12.0938C94.2287 10.5781 95.5647 9.54688 97.5803 9.54688C99.5256 9.54688 100.846 10.5938 100.893 12.125H99.0803C99.0178 11.4141 98.4475 10.9766 97.5412 10.9766C96.6819 10.9766 96.1194 11.3828 96.1194 11.9844C96.1194 12.4531 96.4944 12.7656 97.3069 12.9609L98.7834 13.2891C100.44 13.6797 101.088 14.3203 101.088 15.5469C101.088 17.1094 99.6428 18.1641 97.5491 18.1641C95.4709 18.1641 94.1506 17.1328 94.0178 15.5625H95.9319C96.0491 16.3203 96.635 16.7422 97.6194 16.7422C98.5647 16.7422 99.1506 16.3594 99.1506 15.7422C99.1506 15.2578 98.8459 15 98.0412 14.7969L96.5334 14.4453C95.0022 14.0859 94.2287 13.2891 94.2287 12.0938ZM109.467 12.6719H107.631C107.475 11.7891 106.858 11.125 105.819 11.125C104.592 11.125 103.803 12.1562 103.803 13.8594C103.803 15.5938 104.6 16.5938 105.834 16.5938C106.819 16.5938 107.459 16.0312 107.639 15.0938H109.475C109.319 16.9453 107.889 18.1641 105.811 18.1641C103.389 18.1641 101.827 16.5469 101.827 13.8594C101.827 11.2109 103.389 9.54688 105.795 9.54688C107.983 9.54688 109.334 10.9297 109.467 12.6719ZM114.143 18.1641C111.713 18.1641 110.135 16.5469 110.135 13.8594C110.135 11.1875 111.729 9.54688 114.143 9.54688C116.557 9.54688 118.151 11.1797 118.151 13.8594C118.151 16.5469 116.573 18.1641 114.143 18.1641ZM114.143 16.625C115.378 16.625 116.174 15.625 116.174 13.8594C116.174 12.1016 115.378 11.0938 114.143 11.0938C112.917 11.0938 112.112 12.1016 112.112 13.8594C112.112 15.625 112.909 16.625 114.143 16.625ZM126.585 9.71875V18H124.71V16.5625H124.671C124.233 17.5703 123.397 18.1484 122.139 18.1484C120.342 18.1484 119.202 16.9844 119.202 15.0703V9.71875H121.147V14.6797C121.147 15.8672 121.725 16.5078 122.819 16.5078C123.944 16.5078 124.639 15.7109 124.639 14.5078V9.71875H126.585ZM128.018 18V9.71875H129.886V11.1406H129.925C130.37 10.1562 131.253 9.5625 132.526 9.5625C134.354 9.5625 135.393 10.7344 135.393 12.6484V18H133.448V13.0391C133.448 11.8672 132.901 11.2109 131.792 11.2109C130.675 11.2109 129.964 12.0156 129.964 13.2031V18H128.018ZM137.335 7.78125H139.28V9.71875H140.843V11.2188H139.28V15.5234C139.28 16.2031 139.593 16.5156 140.28 16.5156C140.46 16.5156 140.71 16.5 140.835 16.4766V17.9609C140.624 18.0078 140.241 18.0391 139.827 18.0391C138.038 18.0391 137.335 17.4062 137.335 15.7969V11.2188H136.148V9.71875H137.335V7.78125ZM142.597 6.72656H144.605L144.448 14.2812H142.753L142.597 6.72656ZM143.597 18.1562C142.964 18.1562 142.464 17.6641 142.464 17.0469C142.464 16.4297 142.964 15.9453 143.597 15.9453C144.238 15.9453 144.738 16.4297 144.738 17.0469C144.738 17.6641 144.238 18.1562 143.597 18.1562Z" fill="#259F46"/>
</g>
<defs>
<filter id="filter0_i_21594_59531" x="0" y="0" width="146" height="24" filterUnits="userSpaceOnUse" color-interpolation-filters="sRGB">
<feFlood flood-opacity="0" result="BackgroundImageFix"/>
<feBlend mode="normal" in="SourceGraphic" in2="BackgroundImageFix" result="shape"/>
<feColorMatrix in="SourceAlpha" type="matrix" values="0 0 0 0 0 0 0 0 0 0 0 0 0 0 0 0 0 0 127 0" result="hardAlpha"/>
<feOffset/>
<feGaussianBlur stdDeviation="2"/>
<feComposite in2="hardAlpha" operator="arithmetic" k2="-1" k3="1"/>
<feColorMatrix type="matrix" values="0 0 0 0 0 0 0 0 0 0 0 0 0 0 0 0 0 0 0.16 0"/>
<feBlend mode="normal" in2="shape" result="effect1_innerShadow_21594_59531"/>
</filter>
</defs>
</svg>
