<svg width="32" height="32" viewBox="0 0 32 32" fill="none" xmlns="http://www.w3.org/2000/svg">
<path d="M14.3546 1C7.35064 1 1.66797 6.618 1.66797 13.5553C1.66797 17.6047 3.6053 21.2053 6.6093 23.5V28.4053C6.6093 29.41 7.26397 30.3187 8.2893 30.5087C9.5233 30.7387 11.5453 31 14.354 31C17.1633 31 19.1853 30.7387 20.42 30.5087C21.4446 30.318 22.0993 29.41 22.0993 28.4053V26.4607L23.7793 26.668C24.091 26.7064 24.4072 26.6816 24.709 26.5949C25.0108 26.5082 25.292 26.3615 25.5358 26.1635C25.7795 25.9656 25.9808 25.7205 26.1276 25.4429C26.2744 25.1653 26.3636 24.8609 26.39 24.548L26.774 19.9947C27.8886 19.7 28.7193 19.296 29.2873 18.948C30.038 18.4893 30.0866 17.5467 29.6246 16.9027L27.038 13.296C26.898 6.47867 21.27 1 14.354 1H14.3546Z" fill="#9AB4BE"/>
<path fill-rule="evenodd" clip-rule="evenodd" d="M12.6852 16.5766C12.8866 16.404 13.1483 16.3185 13.4127 16.3389C13.6771 16.3593 13.9226 16.4839 14.0952 16.6852C14.9805 17.7179 16.2845 18.6386 17.7352 19.3012C19.1859 19.9646 20.7092 20.3359 22.0025 20.3359C22.2677 20.3359 22.5221 20.4413 22.7096 20.6288C22.8972 20.8163 23.0025 21.0707 23.0025 21.3359C23.0025 21.6011 22.8972 21.8555 22.7096 22.043C22.5221 22.2306 22.2677 22.3359 22.0025 22.3359C20.3618 22.3359 18.5525 21.8739 16.9039 21.1206C15.2539 20.3666 13.6912 19.2872 12.5772 17.9872C12.4916 17.8875 12.4265 17.772 12.3856 17.6471C12.3447 17.5222 12.3288 17.3905 12.3389 17.2595C12.3489 17.1285 12.3846 17.0008 12.4441 16.8836C12.5035 16.7664 12.5854 16.6621 12.6852 16.5766Z" fill="#0076B7"/>
<path d="M11.3806 8.99328C11.4133 10.0599 12.1359 10.9326 13.2013 10.9839C13.7352 11.0096 14.27 11.0096 14.8039 10.9839C15.8693 10.9326 16.5919 10.0593 16.6246 8.99328C16.6493 8.18862 16.6693 7.09128 16.6693 5.66928C16.6693 3.96862 16.6399 2.73262 16.6093 1.90595C16.5806 1.10595 16.0399 0.447948 15.2426 0.382615C14.83 0.351031 14.4164 0.335464 14.0026 0.335948C13.5146 0.335948 13.1026 0.355282 12.7626 0.382615C11.9653 0.447948 11.4246 1.10595 11.3959 1.90595C11.3646 2.73262 11.3359 3.96862 11.3359 5.66928C11.3359 7.09128 11.3559 8.18862 11.3806 8.99328Z" fill="#0076B7"/>
<path d="M14.0013 8C12.5868 8 11.2303 8.5619 10.2301 9.5621C9.22987 10.5623 8.66797 11.9188 8.66797 13.3333C8.66797 14.7478 9.22987 16.1044 10.2301 17.1046C11.2303 18.1048 12.5868 18.6667 14.0013 18.6667C15.4158 18.6667 16.7723 18.1048 17.7725 17.1046C18.7727 16.1044 19.3346 14.7478 19.3346 13.3333C19.3346 11.9188 18.7727 10.5623 17.7725 9.5621C16.7723 8.5619 15.4158 8 14.0013 8Z" fill="#0076B7"/>
</svg>
