<svg width="32" height="32" viewBox="0 0 32 32" fill="none" xmlns="http://www.w3.org/2000/svg">
<path opacity="0.4" d="M15.9583 29.3307C23.3221 29.3307 29.2917 23.3612 29.2917 15.9974C29.2917 8.6336 23.3221 2.66406 15.9583 2.66406C8.59454 2.66406 2.625 8.6336 2.625 15.9974C2.625 23.3612 8.59454 29.3307 15.9583 29.3307Z" fill="#0076B7"/>
<path d="M20.3326 15.0656H18.066V9.7856C18.066 8.55893 17.3993 8.3056 16.586 9.2256L15.9993 9.89226L11.0393 15.5323C10.3593 16.3056 10.6393 16.9323 11.666 16.9323H13.9326V22.2123C13.9326 23.4389 14.5993 23.6923 15.4126 22.7723L15.9993 22.1056L20.9593 16.4656C21.6393 15.6923 21.3593 15.0656 20.3326 15.0656Z" fill="#0076B7"/>
</svg>
