<svg width="32" height="32" viewBox="0 0 32 32" fill="none" xmlns="http://www.w3.org/2000/svg">
<path d="M25.427 18.9861C25.0404 19.3728 24.427 19.3728 24.0537 18.9861C23.667 18.5995 23.667 17.9861 24.0537 17.6128C26.7204 14.9461 26.7204 10.6128 24.0537 7.95948C21.387 5.30615 17.0537 5.29281 14.4004 7.95948C11.747 10.6261 11.7337 14.9595 14.4004 17.6128C14.787 17.9995 14.787 18.6128 14.4004 18.9861C14.0137 19.3728 13.4004 19.3728 13.027 18.9861C9.60036 15.5595 9.60036 9.98615 13.027 6.57281C16.4537 3.15948 22.027 3.14615 25.4404 6.57281C28.8537 9.99948 28.8537 15.5595 25.427 18.9861Z" fill="#0076B7"/>
<path opacity="0.4" d="M25.4247 6.57C28.8514 9.99667 28.8514 15.5567 25.4247 18.9833C24.2514 20.1567 22.8114 20.93 21.3047 21.3033C22.0114 18.4233 21.2381 15.2633 18.9847 13.01C16.7314 10.7567 13.5714 9.98333 10.6914 10.69C11.0647 9.18333 11.8247 7.74333 13.0114 6.57C16.4381 3.14333 21.9981 3.14333 25.4247 6.57Z" fill="#0076B7"/>
<path d="M6.57167 13.0166C6.95834 12.6299 7.57167 12.6299 7.945 13.0166C8.33167 13.4032 8.33167 14.0166 7.945 14.3899C5.27834 17.0566 5.27834 21.3899 7.945 24.0432C10.6117 26.6966 14.945 26.7099 17.5983 24.0432C20.2517 21.3766 20.265 17.0432 17.5983 14.3899C17.2117 14.0032 17.2117 13.3899 17.5983 13.0166C17.985 12.6299 18.5983 12.6299 18.9717 13.0166C22.3983 16.4432 22.3983 22.0166 18.9717 25.4299C15.545 28.8432 9.97167 28.8566 6.55834 25.4299C3.145 22.0032 3.145 16.4432 6.57167 13.0166Z" fill="#0076B7"/>
<path opacity="0.5" d="M18.9872 13.0106C21.2406 15.2639 22.0139 18.4239 21.3072 21.3039C20.9339 22.8106 20.1606 24.2506 18.9872 25.4239C15.5606 28.8506 10.0006 28.8506 6.57391 25.4239C3.14724 21.9972 3.14724 16.4372 6.57391 13.0106C7.74724 11.8239 9.18724 11.0639 10.6939 10.6906C13.5739 9.9839 16.7339 10.7572 18.9872 13.0106Z" fill="#0076B7"/>
</svg>
