<svg width="32" height="32" viewBox="0 0 32 32" fill="none" xmlns="http://www.w3.org/2000/svg">
<path opacity="0.4" d="M12.0013 2.66406C8.50797 2.66406 5.66797 5.50406 5.66797 8.9974C5.66797 12.4241 8.34797 15.1974 11.8413 15.3174C11.948 15.3041 12.0546 15.3041 12.1346 15.3174C12.1613 15.3174 12.1746 15.3174 12.2013 15.3174C12.2146 15.3174 12.2146 15.3174 12.228 15.3174C15.6413 15.1974 18.3213 12.4241 18.3346 8.9974C18.3346 5.50406 15.4946 2.66406 12.0013 2.66406Z" fill="#0076B7"/>
<path d="M18.7733 18.8678C15.0533 16.3878 8.98661 16.3878 5.23995 18.8678C3.54661 20.0011 2.61328 21.5345 2.61328 23.1745C2.61328 24.8145 3.54661 26.3345 5.22661 27.4545C7.09328 28.7078 9.54661 29.3345 11.9999 29.3345C14.4533 29.3345 16.9066 28.7078 18.7733 27.4545C20.4533 26.3211 21.3866 24.8011 21.3866 23.1478C21.3733 21.5078 20.4533 19.9878 18.7733 18.8678Z" fill="#0076B7"/>
<path opacity="0.4" d="M26.6525 9.7842C26.8658 12.3709 25.0258 14.6375 22.4792 14.9442C22.4658 14.9442 22.4658 14.9442 22.4525 14.9442H22.4125C22.3325 14.9442 22.2525 14.9442 22.1858 14.9709C20.8925 15.0375 19.7058 14.6242 18.8125 13.8642C20.1858 12.6375 20.9725 10.7975 20.8125 8.79753C20.7192 7.71753 20.3458 6.73086 19.7858 5.89086C20.2925 5.63753 20.8792 5.47753 21.4792 5.4242C24.0925 5.19753 26.4258 7.1442 26.6525 9.7842Z" fill="#0076B7"/>
<path d="M29.319 22.1179C29.2123 23.4113 28.3857 24.5313 26.999 25.2913C25.6657 26.0246 23.9857 26.3713 22.319 26.3313C23.279 25.4646 23.839 24.3846 23.9457 23.2379C24.079 21.5846 23.2923 19.9979 21.719 18.7313C20.8257 18.0246 19.7857 17.4646 18.6523 17.0513C21.599 16.1979 25.3057 16.7713 27.5857 18.6113C28.8123 19.5979 29.439 20.8379 29.319 22.1179Z" fill="#0076B7"/>
</svg>
