<svg width="32" height="32" viewBox="0 0 32 32" fill="none" xmlns="http://www.w3.org/2000/svg">
<path opacity="0.4" d="M4.8787 22.5726C4.62537 22.5726 4.37204 22.4793 4.17204 22.2793C2.34537 20.4393 1.33203 18.0126 1.33203 15.4393C1.33203 10.0926 5.66536 5.74591 10.9987 5.74591L19.092 5.77261L17.6387 4.38589C17.2387 3.99922 17.2254 3.37256 17.612 2.97256C17.9987 2.57256 18.6254 2.55928 19.0254 2.94595L22.2787 6.0659C22.572 6.3459 22.6654 6.78591 22.5187 7.15924C22.372 7.53258 21.9987 7.78595 21.5854 7.78595L10.9854 7.75926C6.75871 7.75926 3.31871 11.2126 3.31871 15.4526C3.31871 17.4926 4.11869 19.4259 5.57202 20.8792C5.95869 21.2659 5.95869 21.9059 5.57202 22.2925C5.38535 22.4792 5.13204 22.5726 4.8787 22.5726Z" fill="#0076B7"/>
<path opacity="0.4" d="M13.0012 28.6666C12.7478 28.6666 12.5078 28.5733 12.3078 28.3866L9.0545 25.2666C8.76116 24.9866 8.66784 24.5466 8.81451 24.1733C8.96117 23.8 9.3345 23.5466 9.74783 23.5466L20.3478 23.5733C24.5745 23.5733 28.0145 20.1199 28.0145 15.8799C28.0145 13.8399 27.2145 11.9067 25.7612 10.4533C25.3745 10.0667 25.3745 9.42667 25.7612 9.04C26.1478 8.65333 26.7878 8.65333 27.1745 9.04C29.0012 10.88 30.0145 13.3066 30.0145 15.8799C30.0145 21.2266 25.6812 25.5733 20.3478 25.5733L12.2545 25.5466L13.7078 26.9333C14.1078 27.32 14.1212 27.9466 13.7345 28.3466C13.5212 28.56 13.2678 28.6666 13.0012 28.6666Z" fill="#0076B7"/>
<path d="M11.9987 20.6693H19.9987C22.572 20.6693 24.6654 18.5626 24.6654 16.0026C24.6654 13.4426 22.572 11.3359 19.9987 11.3359H11.9987C9.42536 11.3359 7.33203 13.4426 7.33203 16.0026C7.33203 18.5626 9.42536 20.6693 11.9987 20.6693Z" fill="#0076B7"/>
</svg>
