<svg width="24" height="24" viewBox="0 0 24 24" fill="none" xmlns="http://www.w3.org/2000/svg">
<path d="M21.2995 7.57969H15.7195C15.3295 7.57969 15.0195 7.26969 15.0195 6.87969C15.0195 6.48969 15.3295 6.17969 15.7195 6.17969H21.2995C21.6895 6.17969 21.9995 6.48969 21.9995 6.87969C21.9995 7.26969 21.6895 7.57969 21.2995 7.57969Z" fill="#0076B7"/>
<path d="M6.42 7.57969H2.7C2.31 7.57969 2 7.26969 2 6.87969C2 6.48969 2.31 6.17969 2.7 6.17969H6.42C6.81 6.17969 7.12 6.48969 7.12 6.87969C7.12 7.26969 6.8 7.57969 6.42 7.57969Z" fill="#0076B7"/>
<path d="M10.1414 10.8297C12.3229 10.8297 14.0914 9.06121 14.0914 6.87969C14.0914 4.69816 12.3229 2.92969 10.1414 2.92969C7.95988 2.92969 6.19141 4.69816 6.19141 6.87969C6.19141 9.06121 7.95988 10.8297 10.1414 10.8297Z" fill="#0076B7"/>
<path d="M21.2989 17.8062H17.5789C17.1889 17.8062 16.8789 17.4963 16.8789 17.1063C16.8789 16.7163 17.1889 16.4062 17.5789 16.4062H21.2989C21.6889 16.4062 21.9989 16.7163 21.9989 17.1063C21.9989 17.4963 21.6889 17.8062 21.2989 17.8062Z" fill="#0076B7"/>
<path d="M8.28 17.8062H2.7C2.31 17.8062 2 17.4963 2 17.1063C2 16.7163 2.31 16.4062 2.7 16.4062H8.28C8.67 16.4062 8.98 16.7163 8.98 17.1063C8.98 17.4963 8.66 17.8062 8.28 17.8062Z" fill="#0076B7"/>
<path d="M13.8602 21.0719C16.0417 21.0719 17.8102 19.3034 17.8102 17.1219C17.8102 14.9404 16.0417 13.1719 13.8602 13.1719C11.6786 13.1719 9.91016 14.9404 9.91016 17.1219C9.91016 19.3034 11.6786 21.0719 13.8602 21.0719Z" fill="#0076B7"/>
</svg>
