<svg width="32" height="32" viewBox="0 0 32 32" fill="none" xmlns="http://www.w3.org/2000/svg">
<path opacity="0.4" d="M27.2118 9.28188V13.0685L9.86516 25.7885L6.35849 23.1619C5.49182 22.5085 4.78516 21.1085 4.78516 20.0285V9.28188C4.78516 7.78854 5.93182 6.13521 7.33182 5.61521L14.6252 2.88188C15.3852 2.60188 16.6118 2.60188 17.3718 2.88188L24.6652 5.61521C26.0652 6.13521 27.2118 7.78854 27.2118 9.28188Z" fill="#0076B7"/>
<path d="M27.2138 14.8906V20.024C27.2138 21.104 26.5071 22.504 25.6404 23.1573L18.3471 28.6106C17.7071 29.0906 16.8538 29.3306 16.0004 29.3306C15.1471 29.3306 14.2938 29.0906 13.6538 28.6106L11.0938 26.704L27.2138 14.8906Z" fill="#0076B7"/>
</svg>
