<svg width="32" height="32" viewBox="0 0 32 32" fill="none" xmlns="http://www.w3.org/2000/svg">
<path opacity="0.4" d="M14.6144 2.74742L7.28104 5.49409C5.88104 6.02742 4.73438 7.68076 4.73438 9.18743V19.9874C4.73438 21.0674 5.44104 22.4941 6.30771 23.1341L13.641 28.6141C14.9344 29.5874 17.0544 29.5874 18.3477 28.6141L25.681 23.1341C26.5477 22.4808 27.2544 21.0674 27.2544 19.9874V9.18743C27.2544 7.69409 26.1077 6.02743 24.7077 5.50743L17.3744 2.76076C16.6277 2.46742 15.3744 2.46742 14.6144 2.74742Z" fill="#0076B7"/>
<path d="M19.5718 17.2168L17.4518 15.0968L19.5184 13.0301C19.9051 12.6434 19.9051 12.0034 19.5184 11.6168C19.1318 11.2301 18.4918 11.2301 18.1051 11.6168L16.0384 13.6834L13.9184 11.5634C13.5318 11.1768 12.8918 11.1768 12.5051 11.5634C12.1184 11.9501 12.1184 12.5901 12.5051 12.9768L14.6251 15.0968L12.4384 17.2834C12.0518 17.6701 12.0518 18.3101 12.4384 18.6968C12.6384 18.8968 12.8918 18.9901 13.1451 18.9901C13.3984 18.9901 13.6518 18.8968 13.8518 18.6968L16.0384 16.5101L18.1584 18.6301C18.3584 18.8301 18.6118 18.9234 18.8651 18.9234C19.1184 18.9234 19.3718 18.8301 19.5718 18.6301C19.9584 18.2301 19.9584 17.6034 19.5718 17.2168Z" fill="#0076B7"/>
</svg>
