<svg width="32" height="32" viewBox="0 0 32 32" fill="none" xmlns="http://www.w3.org/2000/svg">
<path opacity="0.4" d="M7.6538 21.3307C7.80046 20.6774 7.5338 19.7441 7.06713 19.2774L3.82713 16.0374C2.8138 15.0241 2.4138 13.9441 2.70713 13.0107C3.0138 12.0774 3.96046 11.4374 5.3738 11.1974L9.5338 10.5041C10.1338 10.3974 10.8671 9.86406 11.1471 9.3174L13.4405 4.7174C14.1071 3.3974 15.0138 2.66406 16.0005 2.66406C16.9871 2.66406 17.8938 3.3974 18.5605 4.7174L20.8538 9.3174C21.0271 9.66406 21.3871 9.9974 21.7738 10.2241L7.4138 24.5841C7.22713 24.7707 6.90713 24.5974 6.96046 24.3307L7.6538 21.3307Z" fill="#0076B7"/>
<path d="M24.9344 19.2825C24.4544 19.7625 24.1877 20.6825 24.3477 21.3358L25.2677 25.3491C25.6544 27.0158 25.4144 28.2691 24.5877 28.8691C24.2544 29.1091 23.8544 29.2291 23.3877 29.2291C22.7077 29.2291 21.9077 28.9758 21.0277 28.4558L17.121 26.1358C16.5077 25.7758 15.4944 25.7758 14.881 26.1358L10.9744 28.4558C9.49437 29.3225 8.22771 29.4691 7.41437 28.8691C7.10771 28.6425 6.88104 28.3358 6.73438 27.9358L22.9477 11.7225C23.561 11.1091 24.4277 10.8291 25.2677 10.9758L26.6144 11.2025C28.0277 11.4425 28.9744 12.0825 29.281 13.0158C29.5744 13.9491 29.1744 15.0291 28.161 16.0425L24.9344 19.2825Z" fill="#0076B7"/>
</svg>
