<svg width="24" height="24" viewBox="0 0 24 24" fill="none" xmlns="http://www.w3.org/2000/svg">
<path d="M21.5589 10.7425L20.1989 9.1625C19.9389 8.8625 19.7289 8.3025 19.7289 7.9025V6.2025C19.7289 5.1425 18.8589 4.2725 17.7989 4.2725H16.0989C15.7089 4.2725 15.1389 4.0625 14.8389 3.8025L13.2589 2.4425C12.5689 1.8525 11.4389 1.8525 10.7389 2.4425L9.16891 3.8125C8.86891 4.0625 8.29891 4.2725 7.90891 4.2725H6.17891C5.11891 4.2725 4.24891 5.1425 4.24891 6.2025V7.9125C4.24891 8.3025 4.03891 8.8625 3.78891 9.1625L2.43891 10.7525C1.85891 11.4425 1.85891 12.5625 2.43891 13.2525L3.78891 14.8425C4.03891 15.1425 4.24891 15.7025 4.24891 16.0925V17.8025C4.24891 18.8625 5.11891 19.7325 6.17891 19.7325H7.90891C8.29891 19.7325 8.86891 19.9425 9.16891 20.2025L10.7489 21.5625C11.4389 22.1525 12.5689 22.1525 13.2689 21.5625L14.8489 20.2025C15.1489 19.9425 15.7089 19.7325 16.1089 19.7325H17.8089C18.8689 19.7325 19.7389 18.8625 19.7389 17.8025V16.1025C19.7389 15.7125 19.9489 15.1425 20.2089 14.8425L21.5689 13.2625C22.1489 12.5725 22.1489 11.4325 21.5589 10.7425ZM16.1589 10.1125L11.3289 14.9425C11.1889 15.0825 10.9989 15.1625 10.7989 15.1625C10.5989 15.1625 10.4089 15.0825 10.2689 14.9425L7.84891 12.5225C7.55891 12.2325 7.55891 11.7525 7.84891 11.4625C8.13891 11.1725 8.61891 11.1725 8.90891 11.4625L10.7989 13.3525L15.0989 9.0525C15.3889 8.7625 15.8689 8.7625 16.1589 9.0525C16.4489 9.3425 16.4489 9.8225 16.1589 10.1125Z" fill="#0076B7"/>
</svg>
